<?xml version="1.0" encoding="utf-8"?>
<svg width="1200pt" height="1200pt" version="1.1" viewBox="57.918 388.03 1082.821 424.249" xmlns="http://www.w3.org/2000/svg">
  <defs/>
  <path d="m1139.5 561c0-94.441-76.922-171.36-171.36-171.36h-36.719c-20.641 0-41.039 6.3594-58.078 18h-147.12l-3.6016-3.8398c-8.6406-9-20.762-14.16-33.238-14.16h-179.28c-12.48 0-24.602 5.1602-33.121 14.16l-3.6016 3.8398h-158.76c-17.039-11.641-37.078-18-57.961-18h-25.078c-94.441 0-171.36 76.922-171.36 171.36v78c0 94.441 76.922 171.36 171.36 171.36h736.44c94.441 0 171.36-76.922 171.36-171.36v-78zm-171.36 213.36h-736.32c-73.199 0-132.96-58.559-135.12-131.16 10.801 14.039 27.719 23.398 46.801 23.398l913.92 0.003906c18.602 0 35.039-8.7617 45.961-22.199-2.7617 72.238-62.16 130.08-135.12 130.08zm135.36-157.08c-4.6797 21.238-23.52 37.199-46.199 37.199h-913.8c-25.199 0-45.719-19.801-47.039-44.762v-48.84c0-74.641 60.719-135.36 135.36-135.36h25.078c16.68 0 32.762 6.2383 45 17.52 13.801 12.602 31.199 19.559 48.84 19.559h100.32c12.48 0 24.602-5.1602 33.121-14.16l18.84-19.801c1.8008-1.9219 4.4414-3 7.0781-3h179.28c2.6406 0 5.2812 1.0781 7.0781 3l18.84 19.801c8.6406 9 20.762 14.16 33.121 14.16h76.922c23.16 0 45.961-7.9219 64.078-22.441 11.762-9.3594 26.52-14.641 41.641-14.641h36.719 0.71875c74.281 0.35938 134.64 60.961 134.64 135.36v56.281z" style="fill: rgb(255, 255, 255);"/>
  <path d="m316.08 519.36c0-12.84-10.32-23.16-23.16-23.16h-104.4c-12.84 0-23.16 10.32-23.16 23.16s10.32 23.16 23.16 23.16h104.28c12.84 0 23.16-10.32 23.16-23.16z" style="fill: rgb(255, 255, 255);"/>
  <path d="m340.08 696.24h-115.92c-12.84 0-23.16 10.32-23.16 23.16 0 12.84 10.32 23.16 23.16 23.16h115.92c12.84 0 23.16-10.32 23.16-23.16 0-12.84-10.32-23.16-23.16-23.16z" style="fill: rgb(255, 255, 255);"/>
  <path d="m975.84 696.24h-115.92c-12.84 0-23.16 10.32-23.16 23.16 0 12.84 10.32 23.16 23.16 23.16h115.92c12.84 0 23.16-10.32 23.16-23.16 0-12.84-10.32-23.16-23.16-23.16z" style="fill: rgb(255, 255, 255);"/>
  <path d="m247.8 571.92h-100.2c-12.84 0-23.16 10.32-23.16 23.16 0 12.84 10.32 23.16 23.16 23.16h100.32c12.84 0 23.16-10.32 23.16-23.16 0-12.84-10.32-23.16-23.16-23.16z" style="fill: rgb(255, 255, 255);"/>
  <path d="m952.2 571.92c-12.84 0-23.16 10.32-23.16 23.16 0 12.84 10.32 23.16 23.16 23.16h100.32c12.84 0 23.16-10.32 23.16-23.16 0-12.84-10.32-23.16-23.16-23.16z" style="fill: rgb(255, 255, 255);"/>
  <path d="m338.76 571.92h-21.48c-12.84 0-23.16 10.32-23.16 23.16 0 12.84 10.32 23.16 23.16 23.16h21.48c12.84 0 23.16-10.32 23.16-23.16 0-12.84-10.32-23.16-23.16-23.16z" style="fill: rgb(255, 255, 255);"/>
  <path d="m882.6 571.92h-21.48c-12.84 0-23.16 10.32-23.16 23.16 0 12.84 10.32 23.16 23.16 23.16h21.48c12.84 0 23.16-10.32 23.16-23.16 0-12.84-10.32-23.16-23.16-23.16z" style="fill: rgb(255, 255, 255);"/>
  <path d="m406.08 571.92h73.32c11.531 0 20.879 11.531 20.879 20.879v4.5586c0 11.531-9.3477 20.879-20.879 20.879h-73.32c-11.531 0-20.879-11.531-20.879-20.879v-4.5586c0-11.531 9.3477-20.879 20.879-20.879z" style="fill: rgb(255, 255, 255);"/>
  <path d="m429.48 696.24h-21.48c-12.84 0-23.16 10.32-23.16 23.16 0 12.84 10.32 23.16 23.16 23.16h21.48c12.84 0 23.16-10.32 23.16-23.16 0-12.84-10.32-23.16-23.16-23.16z" style="fill: rgb(255, 255, 255);"/>
  <path d="m792 696.24h-21.48c-12.84 0-23.16 10.32-23.16 23.16 0 12.84 10.32 23.16 23.16 23.16h21.48c12.84 0 23.16-10.32 23.16-23.16 0-12.84-10.32-23.16-23.16-23.16z" style="fill: rgb(255, 255, 255);"/>
  <path d="m495.48 696.24h73.32c11.531 0 20.879 11.531 20.879 20.879v4.5586c0 11.531-9.3477 20.879-20.879 20.879h-73.32c-11.531 0-20.879-11.531-20.879-20.879v-4.5586c0-11.531 9.3477-20.879 20.879-20.879z" style="fill: rgb(255, 255, 255);"/>
  <path d="m632.4 696.24h73.32c11.531 0 20.879 11.531 20.879 20.879v4.5586c0 11.531-9.3477 20.879-20.879 20.879h-73.32c-11.531 0-20.879-11.531-20.879-20.879v-4.5586c0-11.531 9.3477-20.879 20.879-20.879z" style="fill: rgb(255, 255, 255);"/>
  <path d="m649.44 571.92h-99c-12.84 0-23.16 10.32-23.16 23.16 0 12.84 10.32 23.16 23.16 23.16h99c12.84 0 23.16-10.32 23.16-23.16 0-12.84-10.32-23.16-23.16-23.16z" style="fill: rgb(255, 255, 255);"/>
  <path d="m720.6 571.92h73.32c11.531 0 20.879 11.531 20.879 20.879v4.5586c0 11.531-9.3477 20.879-20.879 20.879h-73.32c-11.531 0-20.879-11.531-20.879-20.879v-4.5586c0-11.531 9.3477-20.879 20.879-20.879z" style="fill: rgb(255, 255, 255);"/>
  <path d="m1034.6 519.36c0-12.84-10.32-23.16-23.16-23.16h-104.28c-12.84 0-23.16 10.32-23.16 23.16s10.32 23.16 23.16 23.16h104.28c12.84 0 23.16-10.32 23.16-23.16z" style="fill: rgb(255, 255, 255);"/>
  <path d="m497.04 542.52h63.238c12.84 0 23.16-10.32 23.16-23.16s-10.32-23.16-23.16-23.16h-63.238c-12.84 0-23.16 10.32-23.16 23.16s10.32 23.16 23.16 23.16z" style="fill: rgb(255, 255, 255);"/>
  <path d="m639.72 542.52h63.238c12.84 0 23.16-10.32 23.16-23.16s-10.32-23.16-23.16-23.16h-63.238c-12.84 0-23.16 10.32-23.16 23.16s10.32 23.16 23.16 23.16z" style="fill: rgb(255, 255, 255);"/>
  <path d="m356.28 542.52h79.559c6 0 10.922-4.9219 10.922-10.922v-24.602c0-6-4.9219-10.922-10.922-10.922h-79.559c-6 0-10.922 4.9219-10.922 10.922v24.602c0 6 4.9219 10.922 10.922 10.922zm1.0781-34.32h77.281v22.32h-77.281z" style="fill: rgb(255, 255, 255);"/>
  <path d="m764.16 542.52h79.559c6 0 10.922-4.9219 10.922-10.922v-24.602c0-6-4.9219-10.922-10.922-10.922h-79.559c-6 0-10.922 4.9219-10.922 10.922v24.602c0 6 4.9219 10.922 10.922 10.922zm1.0781-34.32h77.281v22.32h-77.281z" style="fill: rgb(255, 255, 255);"/>
</svg>